<?xml version="1.0" encoding="UTF-8"?>
<svg id="_图层_1" data-name="图层 1" xmlns="http://www.w3.org/2000/svg" viewBox="0 0 200 200">
  <defs>
    <style>
      .cls-1 {
        fill: #51575f;
      }

      .cls-1, .cls-2 {
        stroke-width: 0px;
      }

      .cls-2 {
        fill: #35bef0;
      }
    </style>
  </defs>
  <path class="cls-1" d="m100.01,200C44.79,200,0,155.24,0,100.01,0,44.79,44.76,0,99.98,0c55.23,0,100,44.76,100.01,99.98v.03c-.06,55.19-44.79,99.92-99.98,99.98Zm0-191.37c-50.45.06-91.33,40.94-91.39,91.39,0,50.47,40.92,91.39,91.39,91.39s91.39-40.92,91.39-91.39S150.48,8.63,100.01,8.63Z"/>
  <path class="cls-2" d="m57.94,100.01c0,23.23,18.82,42.08,42.05,42.09,23.23,0,42.08-18.82,42.09-42.05v-.03c0-23.23-18.82-42.08-42.05-42.09-23.23,0-42.08,18.82-42.09,42.05,0,.01,0,.02,0,.03Z"/>
</svg>